<svg width="86" height="28" viewBox="0 0 86 28" fill="none" xmlns="http://www.w3.org/2000/svg">
<rect x="0.5" y="0.5" width="51" height="27" rx="13.5" fill="#4263EB" stroke="#4263EB"/>
<rect x="26" y="2" width="24" height="24" rx="12" fill="white"/>
<path d="M75.2273 14.1818C75.2273 10.5 73.0682 8.20455 70.0909 8.20455C67.1136 8.20455 64.9545 10.5 64.9545 14.1818C64.9545 17.8636 67.1136 20.1591 70.0909 20.1591C73.0682 20.1591 75.2273 17.8636 75.2273 14.1818ZM73.8636 14.1818C73.8636 17.2045 72.2045 18.8409 70.0909 18.8409C67.9773 18.8409 66.3182 17.2045 66.3182 14.1818C66.3182 11.1591 67.9773 9.52273 70.0909 9.52273C72.2045 9.52273 73.8636 11.1591 73.8636 14.1818ZM78.7557 14.75C78.7557 13.2273 79.6989 12.3636 80.983 12.3636C82.2273 12.3636 82.983 13.1761 82.983 14.5455V20H84.3239V14.4545C84.3239 12.2273 83.1364 11.1591 81.3693 11.1591C80.0511 11.1591 79.233 11.75 78.8239 12.6364H78.7102V11.2727H77.4148V20H78.7557V14.75Z" fill="#495057"/>
</svg>
